<svg xmlns="http://www.w3.org/2000/svg" width="20.109" height="21.996" viewBox="0 0 20.109 21.996">
  <g id="larigrey" transform="translate(1.504 1.396)">
    <path id="path2995" d="M8.925,1.2,7.575,2.484l-.169.147,0,1.806L7.23,4.49l-.149.049-.158.046-.12.049-.138.051-.152.054L6.379,4.8l-.138.057-.124.057-.106.046-.13.067-.1.057-.106.057-.13.067-.1.054-.149.084-.162.1-.176.113-.135.084-.155.11-.1.071-.124.093L4.326,6,4.2,6.094l-.112.084L4,6.261,3.9,6.353,3.7,6.525,3.621,6.6l-.067.067-.092.084-.112.113-.106.107-.067.084-.084.087-.075.1-.077.093-.074.091-.075.087L2.724,7.6l-.07.083L2.6,7.758l-.063.1-.066.1-.057.071L2.361,8.1l-.084.128L2.238,8.3l-.046.077-.066.1-.051.077-.031.077-.063.1-.06.1-.066.126-.049.117-.054.126L1.7,9.313,1.656,9.4l-.041.107-.063.133L1.5,9.785l-.07.2L1.4,10.1l-.043.136-.038.126-.032.126-.084.348-.021.107-.035.126-.025.154-.017.1-.025.161-.025.177-.023.283-.02.2L1,12.3l0,.183,0,.444,0,.147.017.21.014.171.014.123.014.131.014.106.025.131.02.126.02.113.025.113.021.1.032.136.029.119.028.12.043.131.035.133.035.113.032.1.035.113.041.106.041.113.046.11.041.1.038.084.052.12.051.119.057.11.049.11.049.09.049.083.057.118.051.09.052.093.057.093.035.059.035.057.051.08.046.074.043.064.052.067.043.071.067.1.06.083.066.083.046.067.052.064.066.08.054.067.075.087.1.107.078.1.092.1.067.08.074.07.087.087.078.083.078.074.06.054.074.064.077.073.066.057.07.062.057.051.075.062.07.062.063.041.057.052.06.044.049.033.054.041.066.049.063.046.067.046.074.051.066.046.046.029.038.028.043.028.046.03.04.026.035.017H2.5L1,21.2H16.1l1.5-1.422-7.867,0-.17,0-.207-.02-.3-.023-.274-.051-.211-.036-.219-.048-.19-.039-.208-.049-.138-.039-.219-.074-.187-.064-.159-.054L7.1,19.216l-.155-.074L6.8,19.078,6.621,19l-.179-.093-.159-.09-.155-.087-.116-.071-.152-.084-.138-.1L5.6,18.4l-.116-.083-.133-.106-.135-.1L5.08,18l-.133-.107-.141-.131-.13-.12-.089-.083-.106-.12L4.4,17.35l-.084-.084-.106-.123-.116-.136a1.689,1.689,0,0,1-.1-.141,1.261,1.261,0,0,0-.1-.12l-.113-.162-.092-.128-.092-.136L3.5,16.178l-.074-.119-.063-.118-.092-.162-.07-.154-.067-.149-.075-.154-.052-.116L2.965,15.1l-.046-.133-.063-.186-.064-.194-.066-.218-.041-.187-.043-.206L2.6,13.8l-.028-.207-.025-.2-.021-.22-.011-.128L2.5,12.9v-.136l0-.128.008-.133,0-.213.011-.16.008-.167.014-.116.021-.16L2.6,11.54l.02-.149.028-.126.035-.157.028-.128.025-.1.035-.128.038-.11.043-.154.043-.11.057-.154L3,10.084l.055-.126.06-.16.077-.154.054-.093.063-.126.07-.133.057-.1.078-.131.089-.131.06-.1.07-.1.1-.141.087-.118L4,8.362l.081-.1.07-.093.066-.07L4.3,8.014l.063-.074.06-.062.074-.07.063-.073.092-.08.081-.08.162-.149.057-.057.075-.064L5.1,7.242l.067-.059.081-.067.1-.07.089-.064.089-.067.092-.054.112-.08.106-.071.113-.07.081-.057.109-.059.1-.057.074-.046L6.4,6.383l.07-.041.1-.046.106-.051L6.778,6.2l.063-.036.1-.036.087-.036.1-.044.081-.033.081-.03.08-.026.043-.019v6.69L8.923,11.2l0-5.636.018-.007.066-.01.077-.007.1-.016.1-.007.064,0h0l.026,0,.126-.013L9.642,5.5l.164,0,.506,0L10.5,5.5l.158.01.118.01.112.012L11,5.549l.09.013.081.01,0,7.059,1.514-1.425V5.949l.023.006.051.02L12.839,6l.1.033.066.03.1.041.109.046.1.046.1.048.109.051.12.061.086.042.075.039.064.041.075.041.061.03.078.049.067.042.083.048.072.046.072.049.074.049.072.048.084.061L14.677,7l.06.045L14.8,7.1l.069.051.075.058.089.08.077.062.074.067.08.067.078.077.06.046.055.057.089.09.078.078.052.058.055.059.083.088.087.1.074.084.041.062.054.073.066.08.054.068.051.068.051.068.06.084L16.4,8.8l.048.067.043.059.043.064.043.064.04.073.035.065.044.078.04.061.031.058.035.071.031.051.031.059.048.1.048.1.028.054.026.058.026.057.023.058.028.073.023.058.032.064.021.052.018.052.025.071.017.051.023.07.021.075.025.075.028.078.028.1.025.084.032.139.018.071.018.08.021.107.006.02.015.084.02.1.014.109.015.107.018.138.015.126.011.149.009.132.011.173.006.194L19,11.317l0-.025-.008-.057-.012-.07-.014-.074-.011-.058-.017-.088-.02-.077L18.9,10.8l-.032-.123-.017-.065-.021-.08-.026-.09-.021-.075-.021-.077-.02-.062-.021-.073-.028-.081-.028-.084-.038-.106L18.6,9.8l-.028-.083-.034-.08-.028-.068-.035-.1-.035-.075-.032-.067-.037-.083-.035-.075-.043-.1-.035-.075-.04-.07-.043-.086-.035-.065L18.1,8.685l-.038-.065-.04-.07-.044-.074-.052-.083-.048-.084-.041-.065-.043-.071-.043-.062L17.7,8.038l-.04-.058-.049-.065-.034-.051-.035-.044-.052-.077-.054-.073-.048-.062-.043-.058L17.3,7.486l-.054-.065-.054-.065-.031-.044-.049-.052-.031-.036-.052-.062-.049-.055-.054-.061-.083-.093-.069-.074-.064-.061-.061-.064-.067-.064-.1-.1L16.4,6.518l-.07-.065-.086-.08-.077-.07L16.1,6.25l-.089-.08-.075-.058-.063-.054L15.786,6l-.07-.054-.081-.062-.078-.055-.087-.059-.077-.052L15.3,5.649l-.084-.057-.067-.048-.07-.044-.074-.045-.084-.049-.089-.054L14.753,5.3l-.07-.041L14.6,5.218l-.075-.041-.084-.042-.089-.048-.075-.038-.089-.044L14.1,4.966l-.075-.036-.106-.048-.1-.042-.1-.044-.121-.049-.09-.038-.1-.038-.089-.033-.083-.028-.089-.03-.12-.044-.089-.028-.1-.033-.083-.023-.052-.009L12.693,1.2,11.176,2.632l0,1.5-.121-.019L10.9,4.1l-.129-.013-.218-.016-.2-.006-.12,0-.29,0-.19,0-.221.007-.153.007-.04.009h0L9.2,4.1l-.135.01-.1.019-.043.017Z" transform="translate(-1 -1.2)" fill="#455a64" stroke="#455a64" stroke-width="1.2"/>
  </g>
</svg>
